<svg xmlns="http://www.w3.org/2000/svg" viewBox="0 0 1071.49 290.33"><defs><style>.cls-1{fill:#0076a7;}.cls-2{fill:#ed6d3a;}.cls-3{fill:#fff;}.cls-4{fill:#1d1d1b;}</style></defs><g id="Capa_2" data-name="Capa 2"><g id="Capa_1-2" data-name="Capa 1"><path class="cls-1" d="M991.93,8.86H79.55A70.93,70.93,0,0,0,8.7,79.72v95.91a70.93,70.93,0,0,0,70.85,70.86H991.93a70.94,70.94,0,0,0,70.86-70.86V79.72A70.94,70.94,0,0,0,991.93,8.86Zm60.19,166.77a60.18,60.18,0,0,1-60.19,60.18H507.78V19.54H991.93a60.18,60.18,0,0,1,60.19,60.18Z"/><rect class="cls-2" y="0.17" width="1071.49" height="255.02" rx="79.55"/><rect class="cls-2" x="5.67" y="5.84" width="1060.15" height="243.68" rx="73.88"/><path class="cls-3" d="M1052.12,175.63a60.18,60.18,0,0,1-60.19,60.18H508.78V19.54H991.93a60.18,60.18,0,0,1,60.19,60.18Z"/><path class="cls-4" d="M53.93,273.16a4.61,4.61,0,0,0-.9-.74,9.68,9.68,0,0,0-3.16-1.29,9,9,0,0,0-2.06-.22,5.09,5.09,0,0,0-3.12.81A2.69,2.69,0,0,0,43.63,274a2.37,2.37,0,0,0,.34,1.33,2.94,2.94,0,0,0,1,.89,8.7,8.7,0,0,0,1.72.67c.69.2,1.49.41,2.41.64,1.08.29,2.07.59,3,.9a8.92,8.92,0,0,1,2.31,1.17,5,5,0,0,1,1.48,1.74,5.58,5.58,0,0,1,.53,2.56,6.25,6.25,0,0,1-.65,3,5.58,5.58,0,0,1-1.77,2A7.78,7.78,0,0,1,51.44,290a13.1,13.1,0,0,1-3.13.36,15.89,15.89,0,0,1-4.9-.77,14,14,0,0,1-4.28-2.23l1.63-3a7.42,7.42,0,0,0,1.15.91,10.41,10.41,0,0,0,1.77.92,15.37,15.37,0,0,0,2.23.72,10.5,10.5,0,0,0,2.53.3,5.61,5.61,0,0,0,3.11-.74,2.42,2.42,0,0,0,1.1-2.14,2.32,2.32,0,0,0-.4-1.4,3.41,3.41,0,0,0-1.19-1,9.89,9.89,0,0,0-1.9-.75l-2.56-.7a26.21,26.21,0,0,1-2.89-.92,7.16,7.16,0,0,1-2.05-1.17,4.56,4.56,0,0,1-1.23-1.61,5.35,5.35,0,0,1-.42-2.23,6.53,6.53,0,0,1,.61-2.89,5.91,5.91,0,0,1,1.68-2.12,7.49,7.49,0,0,1,2.55-1.3,11.05,11.05,0,0,1,3.15-.44,11.71,11.71,0,0,1,4.2.72,14.22,14.22,0,0,1,3.33,1.78Z"/><path class="cls-4" d="M64.36,290.11V268h3.5v22.14Z"/><path class="cls-4" d="M90.4,273.16a4.61,4.61,0,0,0-.9-.74,9.44,9.44,0,0,0-1.39-.73,9.56,9.56,0,0,0-1.76-.56,9.19,9.19,0,0,0-2.07-.22,5.09,5.09,0,0,0-3.12.81A2.69,2.69,0,0,0,80.1,274a2.37,2.37,0,0,0,.34,1.33,2.94,2.94,0,0,0,1,.89,8.7,8.7,0,0,0,1.72.67c.69.2,1.49.41,2.41.64,1.08.29,2.07.59,3,.9a8.92,8.92,0,0,1,2.31,1.17,5,5,0,0,1,1.48,1.74,5.46,5.46,0,0,1,.53,2.56,6.25,6.25,0,0,1-.65,3,5.58,5.58,0,0,1-1.77,2A7.78,7.78,0,0,1,87.91,290a13.1,13.1,0,0,1-3.13.36,15.89,15.89,0,0,1-4.9-.77,14,14,0,0,1-4.28-2.23l1.63-3a7.42,7.42,0,0,0,1.15.91,10.41,10.41,0,0,0,1.77.92,15.37,15.37,0,0,0,2.23.72,10.5,10.5,0,0,0,2.53.3,5.61,5.61,0,0,0,3.11-.74,2.42,2.42,0,0,0,1.1-2.14,2.32,2.32,0,0,0-.4-1.4,3.41,3.41,0,0,0-1.19-1,9.89,9.89,0,0,0-1.9-.75l-2.56-.7a26.21,26.21,0,0,1-2.89-.92,7.16,7.16,0,0,1-2.05-1.17,4.56,4.56,0,0,1-1.23-1.61,5.35,5.35,0,0,1-.42-2.23,6.53,6.53,0,0,1,.61-2.89,6,6,0,0,1,1.68-2.12,7.49,7.49,0,0,1,2.55-1.3,11.05,11.05,0,0,1,3.15-.44,11.71,11.71,0,0,1,4.2.72A14.22,14.22,0,0,1,92,270.28Z"/><path class="cls-4" d="M117,271h-7.37v19.08h-3.5V271h-7.4v-3.09H117Z"/><path class="cls-4" d="M139.58,287v3.09h-15.2V267.94H139.3V271H127.88v6.31h9.89v2.9h-9.89V287Z"/><path class="cls-4" d="M166.38,290.11v-16l-6.59,12.09h-1.94l-6.62-12.09v16h-3.5V267.94h3.75l7.34,13.55,7.34-13.55h3.74v22.17Z"/><path class="cls-4" d="M177,290.11,186,267.94h2.88l8.9,22.17H194l-2.37-6h-8.56l-2.31,6Zm10.37-18.27-3.68,9.65H191Z"/><path class="cls-4" d="M215.9,290.11V268h3.5v22.14Z"/><path class="cls-4" d="M232.29,274.5v15.61H228.8V267.94h2.74l12.68,16V268h3.53v22.14h-2.9Z"/><path class="cls-4" d="M273.42,271h-7.37v19.08h-3.5V271h-7.4v-3.09h18.27Z"/><path class="cls-4" d="M296.05,287v3.09h-15.2V267.94h14.92V271H284.34v6.31h9.9v2.9h-9.9V287Z"/><path class="cls-4" d="M319.5,287.36a8.41,8.41,0,0,1-6.33,2.91,8.82,8.82,0,0,1-4.05-1,10.78,10.78,0,0,1-3.28-2.52,12.19,12.19,0,0,1-2.18-3.63,11.74,11.74,0,0,1,2.18-12.07,10.44,10.44,0,0,1,3.3-2.42,10.61,10.61,0,0,1,9.4.44,8.74,8.74,0,0,1,3.21,3.51l-2.68,1.94a6.39,6.39,0,0,0-2.45-2.72,6.67,6.67,0,0,0-3.42-.9,5.74,5.74,0,0,0-2.78.67,6.82,6.82,0,0,0-2.14,1.78,8.17,8.17,0,0,0-1.37,2.58,9.43,9.43,0,0,0-.49,3.06,9.3,9.3,0,0,0,.53,3.15,8,8,0,0,0,1.49,2.56,7,7,0,0,0,2.23,1.73,6.08,6.08,0,0,0,2.78.64q3.36,0,6.05-3.28v-2.34h-4.65V278.9h7.59v11.21H319.5Z"/><path class="cls-4" d="M330.9,290.11V267.94h9.65a6.21,6.21,0,0,1,2.76.62,7.11,7.11,0,0,1,2.17,1.64,7.62,7.62,0,0,1,1.42,2.31,7,7,0,0,1,.52,2.64,7.72,7.72,0,0,1-.31,2.16,7.33,7.33,0,0,1-.88,1.9,6,6,0,0,1-1.37,1.52,5.88,5.88,0,0,1-1.78.95l5.28,8.43h-4l-4.87-7.71H334.4v7.71Zm3.5-10.8h6.12a2.82,2.82,0,0,0,1.36-.33,3.21,3.21,0,0,0,1-.91,4.59,4.59,0,0,0,.69-1.32,4.92,4.92,0,0,0,.25-1.6,4.24,4.24,0,0,0-.3-1.59,4.38,4.38,0,0,0-.78-1.31,3.83,3.83,0,0,0-1.12-.89,2.88,2.88,0,0,0-1.33-.33H334.4Z"/><path class="cls-4" d="M353.76,290.11l8.93-22.17h2.87l8.9,22.17h-3.71l-2.38-6h-8.55l-2.31,6Zm10.37-18.27-3.69,9.65h7.25Z"/><path class="cls-4" d="M381.55,290.11V267.94h7.87a11.8,11.8,0,0,1,4.7.87,9.6,9.6,0,0,1,5.41,5.89,13.12,13.12,0,0,1,.69,4.29,13,13,0,0,1-.76,4.58,10.15,10.15,0,0,1-2.17,3.5,9.78,9.78,0,0,1-3.41,2.24,11.77,11.77,0,0,1-4.46.8ZM396.66,279a10.29,10.29,0,0,0-.48-3.21,7.22,7.22,0,0,0-1.42-2.52,6.7,6.7,0,0,0-2.28-1.63,7.46,7.46,0,0,0-3.06-.6h-4.37v16h4.37a7.43,7.43,0,0,0,3.1-.61,6.36,6.36,0,0,0,2.28-1.69,7,7,0,0,0,1.39-2.54A10.21,10.21,0,0,0,396.66,279Z"/><path class="cls-4" d="M417.49,290.27a9.39,9.39,0,0,1-4.26-1,10.55,10.55,0,0,1-3.31-2.52,11.43,11.43,0,0,1-2.14-3.61A11.89,11.89,0,0,1,407,279a11.53,11.53,0,0,1,.79-4.25,11.87,11.87,0,0,1,2.21-3.59,10.41,10.41,0,0,1,3.34-2.48,9.58,9.58,0,0,1,4.21-.93,9.16,9.16,0,0,1,4.26,1,10.69,10.69,0,0,1,3.3,2.57,12,12,0,0,1,2.12,3.61,11.67,11.67,0,0,1,.75,4.11,11.62,11.62,0,0,1-3,7.82,10.71,10.71,0,0,1-3.32,2.47A9.64,9.64,0,0,1,417.49,290.27ZM410.59,279a9.59,9.59,0,0,0,.48,3,8.22,8.22,0,0,0,1.39,2.6,6.79,6.79,0,0,0,2.19,1.79,6.46,6.46,0,0,0,5.79,0,7,7,0,0,0,2.19-1.86A8.52,8.52,0,0,0,424,282a9.21,9.21,0,0,0,.47-2.93,9.12,9.12,0,0,0-.5-3,8.23,8.23,0,0,0-1.4-2.56,7.12,7.12,0,0,0-2.19-1.78,6.4,6.4,0,0,0-5.76,0,7.19,7.19,0,0,0-2.19,1.83,8.19,8.19,0,0,0-1.35,2.57A9.39,9.39,0,0,0,410.59,279Z"/><path class="cls-4" d="M448.12,290.11V267.94H456a11.77,11.77,0,0,1,4.7.87,9.74,9.74,0,0,1,3.37,2.38,9.94,9.94,0,0,1,2.05,3.51,13.39,13.39,0,0,1,.68,4.29,13,13,0,0,1-.76,4.58,10.15,10.15,0,0,1-2.17,3.5,9.69,9.69,0,0,1-3.41,2.24,11.77,11.77,0,0,1-4.46.8ZM463.23,279a10.29,10.29,0,0,0-.48-3.21,7.06,7.06,0,0,0-1.42-2.52,6.7,6.7,0,0,0-2.28-1.63A7.46,7.46,0,0,0,456,271h-4.37v16H456a7.51,7.51,0,0,0,3.11-.61,6.53,6.53,0,0,0,2.28-1.69,7.34,7.34,0,0,0,1.39-2.54A10.51,10.51,0,0,0,463.23,279Z"/><path class="cls-4" d="M490.15,287v3.09H474.94V267.94h14.93V271H478.44v6.31h9.9v2.9h-9.9V287Z"/><path class="cls-4" d="M509,278.87a11.59,11.59,0,0,1,.72-4,11.23,11.23,0,0,1,2.07-3.56,10.56,10.56,0,0,1,3.33-2.55,10,10,0,0,1,4.46-1,9.38,9.38,0,0,1,5.11,1.34,8.54,8.54,0,0,1,3.2,3.5l-2.75,1.84a5.66,5.66,0,0,0-1.09-1.69,5.56,5.56,0,0,0-1.42-1.09,6.27,6.27,0,0,0-1.58-.58,8,8,0,0,0-1.59-.17,6.1,6.1,0,0,0-3,.7,6.62,6.62,0,0,0-2.17,1.86,8,8,0,0,0-1.31,2.59,9.58,9.58,0,0,0-.44,2.87,9.38,9.38,0,0,0,.51,3.1,8.62,8.62,0,0,0,1.45,2.59,7.22,7.22,0,0,0,2.22,1.79,6,6,0,0,0,2.81.67,6.86,6.86,0,0,0,1.64-.2,5.73,5.73,0,0,0,1.63-.65,7.25,7.25,0,0,0,1.42-1.14,6,6,0,0,0,1.09-1.66l2.9,1.66a7,7,0,0,1-1.48,2.2,9.92,9.92,0,0,1-2.14,1.61,10.48,10.48,0,0,1-2.53,1,10.61,10.61,0,0,1-2.65.35,8.91,8.91,0,0,1-4.22-1,11.17,11.17,0,0,1-3.29-2.61,12,12,0,0,1-2.92-7.82Z"/><path class="cls-4" d="M544.76,290.27a9.39,9.39,0,0,1-4.26-1,10.66,10.66,0,0,1-3.31-2.52,11.43,11.43,0,0,1-2.14-3.61,11.89,11.89,0,0,1-.75-4.15,11.8,11.8,0,0,1,3-7.84,10.52,10.52,0,0,1,3.34-2.48,9.62,9.62,0,0,1,4.22-.93,9.16,9.16,0,0,1,4.26,1,10.65,10.65,0,0,1,3.29,2.57,11.83,11.83,0,0,1,2.13,3.61,11.67,11.67,0,0,1,.75,4.11,11.75,11.75,0,0,1-3,7.82,10.87,10.87,0,0,1-3.33,2.47A9.64,9.64,0,0,1,544.76,290.27ZM537.86,279a9.32,9.32,0,0,0,.49,3,8.2,8.2,0,0,0,1.38,2.6,7,7,0,0,0,2.19,1.79,6,6,0,0,0,2.87.67,6,6,0,0,0,2.92-.7,6.9,6.9,0,0,0,2.19-1.86,8.55,8.55,0,0,0,1.36-2.59,9.49,9.49,0,0,0,.46-2.93,9.12,9.12,0,0,0-.5-3,8.23,8.23,0,0,0-1.4-2.56,6.9,6.9,0,0,0-2.19-1.78,6.4,6.4,0,0,0-5.76,0,7,7,0,0,0-2.18,1.83,8,8,0,0,0-1.36,2.57A9.69,9.69,0,0,0,537.86,279Z"/><path class="cls-4" d="M566.84,274.5v15.61h-3.5V267.94h2.75l12.68,16V268h3.52v22.14h-2.9Z"/><path class="cls-4" d="M608,271h-7.37v19.08H597.1V271h-7.4v-3.09H608Z"/><path class="cls-4" d="M615.39,290.11V267.94H625a6.21,6.21,0,0,1,2.76.62A7.11,7.11,0,0,1,630,270.2a7.85,7.85,0,0,1,1.43,2.31,7.2,7.2,0,0,1,.51,2.64,7.37,7.37,0,0,1-1.19,4.06,6,6,0,0,1-1.37,1.52,5.77,5.77,0,0,1-1.78.95l5.28,8.43h-4L624,282.4h-5.12v7.71Zm3.5-10.8H625a2.82,2.82,0,0,0,1.36-.33,3.21,3.21,0,0,0,1-.91,4.36,4.36,0,0,0,.69-1.32,4.92,4.92,0,0,0,.25-1.6,4.24,4.24,0,0,0-.3-1.59,4.18,4.18,0,0,0-.78-1.31,3.7,3.7,0,0,0-1.12-.89,2.88,2.88,0,0,0-1.33-.33h-5.93Z"/><path class="cls-4" d="M649.58,290.27a9.39,9.39,0,0,1-4.26-1,10.66,10.66,0,0,1-3.31-2.52,11.62,11.62,0,0,1-2.14-3.61,11.89,11.89,0,0,1-.75-4.15,11.8,11.8,0,0,1,3-7.84,10.52,10.52,0,0,1,3.34-2.48,9.62,9.62,0,0,1,4.22-.93,9.16,9.16,0,0,1,4.26,1,10.65,10.65,0,0,1,3.29,2.57,11.83,11.83,0,0,1,2.13,3.61,11.67,11.67,0,0,1,.75,4.11,11.49,11.49,0,0,1-.8,4.24,11.37,11.37,0,0,1-2.2,3.58,10.87,10.87,0,0,1-3.33,2.47A9.64,9.64,0,0,1,649.58,290.27ZM642.68,279a9.32,9.32,0,0,0,.49,3,8,8,0,0,0,1.39,2.6,6.86,6.86,0,0,0,2.18,1.79,6.48,6.48,0,0,0,5.8,0,6.86,6.86,0,0,0,2.18-1.86,8.55,8.55,0,0,0,1.36-2.59,9.5,9.5,0,0,0,.47-2.93,9.38,9.38,0,0,0-.5-3,8.26,8.26,0,0,0-1.41-2.56,7,7,0,0,0-2.18-1.78,6.4,6.4,0,0,0-5.76,0,7,7,0,0,0-2.19,1.83,8.22,8.22,0,0,0-1.36,2.57A9.69,9.69,0,0,0,642.68,279Z"/><path class="cls-4" d="M668.16,290.11V267.94h3.5V287h11.9v3.09Z"/><path class="cls-4" d="M702.2,290.11V267.94h7.87a11.8,11.8,0,0,1,4.7.87,9.6,9.6,0,0,1,5.41,5.89,13.12,13.12,0,0,1,.69,4.29,13,13,0,0,1-.76,4.58,10.15,10.15,0,0,1-2.17,3.5,9.69,9.69,0,0,1-3.41,2.24,11.77,11.77,0,0,1-4.46.8ZM717.31,279a10.29,10.29,0,0,0-.48-3.21,7.22,7.22,0,0,0-1.42-2.52,6.7,6.7,0,0,0-2.28-1.63,7.46,7.46,0,0,0-3.06-.6H705.7v16h4.37a7.43,7.43,0,0,0,3.1-.61,6.36,6.36,0,0,0,2.28-1.69,7,7,0,0,0,1.39-2.54A10.21,10.21,0,0,0,717.31,279Z"/><path class="cls-4" d="M744.23,287v3.09H729V267.94H744V271H732.52v6.31h9.9v2.9h-9.9V287Z"/><path class="cls-4" d="M773.55,290.27a9.39,9.39,0,0,1-4.26-1,10.55,10.55,0,0,1-3.31-2.52,11.43,11.43,0,0,1-2.14-3.61,11.89,11.89,0,0,1-.75-4.15,11.53,11.53,0,0,1,.79-4.25,11.87,11.87,0,0,1,2.21-3.59,10.41,10.41,0,0,1,3.34-2.48,9.58,9.58,0,0,1,4.21-.93,9.16,9.16,0,0,1,4.26,1,10.81,10.81,0,0,1,3.3,2.57,12,12,0,0,1,2.12,3.61,11.67,11.67,0,0,1,.75,4.11,11.62,11.62,0,0,1-3,7.82,10.71,10.71,0,0,1-3.32,2.47A9.64,9.64,0,0,1,773.55,290.27ZM766.65,279a9.59,9.59,0,0,0,.48,3,8.22,8.22,0,0,0,1.39,2.6,6.9,6.9,0,0,0,2.19,1.79,6.46,6.46,0,0,0,5.79,0,6.86,6.86,0,0,0,2.18-1.86A8.33,8.33,0,0,0,780,282a9.21,9.21,0,0,0,.47-2.93,9.38,9.38,0,0,0-.5-3,8.23,8.23,0,0,0-1.4-2.56,7.12,7.12,0,0,0-2.19-1.78,6.4,6.4,0,0,0-5.76,0,7.19,7.19,0,0,0-2.19,1.83,8.19,8.19,0,0,0-1.35,2.57A9.39,9.39,0,0,0,766.65,279Z"/><path class="cls-4" d="M792.13,290.11V267.94h9.3a6.28,6.28,0,0,1,2.77.62,7.36,7.36,0,0,1,2.17,1.64,8,8,0,0,1,1.42,2.31,7.2,7.2,0,0,1,.51,2.64,7.68,7.68,0,0,1-.48,2.7,7.58,7.58,0,0,1-1.36,2.32,6.76,6.76,0,0,1-2.11,1.62,6.15,6.15,0,0,1-2.73.61h-6v7.71Zm3.49-10.8h5.78a2.93,2.93,0,0,0,1.36-.32,3.12,3.12,0,0,0,1-.87,4.17,4.17,0,0,0,.68-1.31,5.12,5.12,0,0,0,.25-1.66,4.7,4.7,0,0,0-.28-1.68,4.13,4.13,0,0,0-.78-1.3,3.59,3.59,0,0,0-1.14-.84,3.11,3.11,0,0,0-1.33-.3h-5.59Z"/><path class="cls-4" d="M831.13,287v3.09H815.92V267.94h14.93V271H819.42v6.31h9.9v2.9h-9.9V287Z"/><path class="cls-4" d="M839.28,290.11V267.94h9.65a6.24,6.24,0,0,1,2.76.62,7.23,7.23,0,0,1,2.17,1.64,7.82,7.82,0,0,1,1.42,2.31,7.21,7.21,0,0,1,.52,2.64,7.38,7.38,0,0,1-.32,2.16,7.3,7.3,0,0,1-.87,1.9,6.22,6.22,0,0,1-1.37,1.52,6,6,0,0,1-1.78.95l5.27,8.43h-4l-4.87-7.71h-5.13v7.71Zm3.49-10.8h6.12a2.79,2.79,0,0,0,1.36-.33,3.15,3.15,0,0,0,1-.91,4.59,4.59,0,0,0,.69-1.32,5.21,5.21,0,0,0,.25-1.6,4.24,4.24,0,0,0-.3-1.59,4.6,4.6,0,0,0-.78-1.31,3.74,3.74,0,0,0-1.13-.89,2.81,2.81,0,0,0-1.32-.33h-5.94Z"/><path class="cls-4" d="M862.13,290.11l8.94-22.17h2.87l8.9,22.17h-3.72l-2.37-6h-8.56l-2.31,6Zm10.37-18.27-3.68,9.65h7.24Z"/><path class="cls-4" d="M888.55,278.87a11.59,11.59,0,0,1,.72-4,11.26,11.26,0,0,1,2.08-3.56,10.41,10.41,0,0,1,3.32-2.55,10.05,10.05,0,0,1,4.47-1,9.35,9.35,0,0,1,5.1,1.34,8.47,8.47,0,0,1,3.2,3.5l-2.75,1.84a5.66,5.66,0,0,0-1.09-1.69,5.56,5.56,0,0,0-1.42-1.09,6.27,6.27,0,0,0-1.58-.58A8,8,0,0,0,899,271a6.13,6.13,0,0,0-3,.7,6.72,6.72,0,0,0-2.17,1.86,8.21,8.21,0,0,0-1.31,2.59,9.91,9.91,0,0,0-.44,2.87,9.13,9.13,0,0,0,.52,3.1,8.21,8.21,0,0,0,1.45,2.59,7.06,7.06,0,0,0,2.21,1.79,6,6,0,0,0,2.82.67,6.84,6.84,0,0,0,1.63-.2,5.62,5.62,0,0,0,1.63-.65,7.25,7.25,0,0,0,1.42-1.14,5.76,5.76,0,0,0,1.09-1.66l2.91,1.66a7,7,0,0,1-1.49,2.2,9.68,9.68,0,0,1-2.14,1.61,10.48,10.48,0,0,1-2.53,1,10.61,10.61,0,0,1-2.65.35,8.91,8.91,0,0,1-4.22-1,11.44,11.44,0,0,1-3.29-2.61,12.18,12.18,0,0,1-2.92-7.82Z"/><path class="cls-4" d="M915.47,290.11V268H919v22.14Z"/><path class="cls-4" d="M937.48,290.27a9.39,9.39,0,0,1-4.26-1,10.55,10.55,0,0,1-3.31-2.52,11.43,11.43,0,0,1-2.14-3.61A11.89,11.89,0,0,1,927,279a11.8,11.8,0,0,1,3-7.84,10.41,10.41,0,0,1,3.34-2.48,9.58,9.58,0,0,1,4.21-.93,9.2,9.2,0,0,1,4.27,1,10.77,10.77,0,0,1,3.29,2.57,11.8,11.8,0,0,1,2.12,3.61,11.67,11.67,0,0,1,.75,4.11,11.67,11.67,0,0,1-3,7.82,10.87,10.87,0,0,1-3.33,2.47A9.64,9.64,0,0,1,937.48,290.27ZM930.58,279a9.59,9.59,0,0,0,.48,3,8.42,8.42,0,0,0,1.39,2.6,7,7,0,0,0,2.19,1.79,6.46,6.46,0,0,0,5.79,0,7,7,0,0,0,2.19-1.86A8.52,8.52,0,0,0,944,282a9.21,9.21,0,0,0,.47-2.93,9.12,9.12,0,0,0-.5-3,8.23,8.23,0,0,0-1.4-2.56,7,7,0,0,0-2.19-1.78,6.4,6.4,0,0,0-5.76,0,7,7,0,0,0-2.18,1.83,8,8,0,0,0-1.36,2.57A9.69,9.69,0,0,0,930.58,279Z"/><path class="cls-4" d="M959.56,274.5v15.61h-3.5V267.94h2.75l12.67,16V268H975v22.14h-2.9Z"/><path class="cls-4" d="M999.62,287v3.09H984.41V267.94h14.93V271H987.91v6.31h9.9v2.9h-9.9V287Z"/><path class="cls-4" d="M1020.6,273.16a4.93,4.93,0,0,0-.9-.74,9.68,9.68,0,0,0-3.16-1.29,9,9,0,0,0-2.06-.22,5.09,5.09,0,0,0-3.12.81,2.69,2.69,0,0,0-1.06,2.28,2.37,2.37,0,0,0,.34,1.33,2.86,2.86,0,0,0,1,.89,8.7,8.7,0,0,0,1.72.67c.69.2,1.49.41,2.4.64,1.08.29,2.08.59,3,.9a8.92,8.92,0,0,1,2.31,1.17,5.06,5.06,0,0,1,1.48,1.74,5.58,5.58,0,0,1,.53,2.56,6.14,6.14,0,0,1-.66,3,5.46,5.46,0,0,1-1.76,2,7.74,7.74,0,0,1-2.58,1.12,13.08,13.08,0,0,1-3.12.36,15.84,15.84,0,0,1-4.9-.77,14,14,0,0,1-4.28-2.23l1.62-3a8.1,8.1,0,0,0,1.16.91,10.68,10.68,0,0,0,1.76.92,15.92,15.92,0,0,0,2.24.72,10.5,10.5,0,0,0,2.53.3,5.57,5.57,0,0,0,3.1-.74,2.4,2.4,0,0,0,1.11-2.14,2.32,2.32,0,0,0-.4-1.4,3.5,3.5,0,0,0-1.19-1,10,10,0,0,0-1.91-.75c-.74-.21-1.6-.45-2.56-.7a26.69,26.69,0,0,1-2.88-.92,7,7,0,0,1-2-1.17,4.56,4.56,0,0,1-1.23-1.61,5.35,5.35,0,0,1-.42-2.23,6.67,6.67,0,0,1,.6-2.89,6,6,0,0,1,1.69-2.12,7.49,7.49,0,0,1,2.55-1.3,11,11,0,0,1,3.15-.44,11.71,11.71,0,0,1,4.2.72,14,14,0,0,1,3.32,1.78Z"/><path class="cls-2" d="M571.54,68.86h92.83a11.63,11.63,0,0,1,10.14,5.55,11.9,11.9,0,0,1,1.64,6v19.76H572.07a20,20,0,0,0-16.47,8.15,19.4,19.4,0,0,0-4.08,12v17.77a20,20,0,0,0,5.64,14,22.18,22.18,0,0,0,4.33,3.38,12,12,0,0,0,3.47,1.56,18,18,0,0,0,5.54,1.3H675.89v20q0,4.77-4.24,8.67a11.78,11.78,0,0,1-7.28,2.51h-93a50.67,50.67,0,0,1-29.81-9.79,67.8,67.8,0,0,1-6.59-5.64,47.2,47.2,0,0,1-6-7.45,51.9,51.9,0,0,1-8.75-29.47V121.3a50.81,50.81,0,0,1,5.89-24.53,65.71,65.71,0,0,1,4.25-7.11c.46-.52,1-1.09,1.47-1.73q1.3-1.56,2.95-3.38a45.78,45.78,0,0,1,7.45-6.24,47.83,47.83,0,0,1,29.29-9.45Z"/><path class="cls-2" d="M739.25,68.86h62.14a50.35,50.35,0,0,1,29.29,9.45,39.63,39.63,0,0,1,5.64,4.51c.34.29.72.6,1.12,1q4.24,4.86,6.16,7.45a51.79,51.79,0,0,1,9.1,29.64v16.73a51.75,51.75,0,0,1-12.4,34.06,58.3,58.3,0,0,1-15.34,12,50.49,50.49,0,0,1-23.74,5.89h-61.8a51.22,51.22,0,0,1-30.85-10.31,87.21,87.21,0,0,1-6.59-6,41.31,41.31,0,0,1-5.81-7.46,50.35,50.35,0,0,1-8.23-27.9V120.52a51,51,0,0,1,11.35-32.24q1.65-1.91,5.38-5.9a45.32,45.32,0,0,1,6.41-4.76A50.23,50.23,0,0,1,739.25,68.86Zm-20,52.44v15.77a19.58,19.58,0,0,0,2.68,10.66,15,15,0,0,0,3.12,4.42,20.19,20.19,0,0,0,14.91,6.24H800.7a19.8,19.8,0,0,0,16.46-8.23,21.31,21.31,0,0,0,2.86-4.77,22.93,22.93,0,0,0,1.39-8.67V122q0-5.64-1.21-8.41a20.72,20.72,0,0,0-9-10.57,19.65,19.65,0,0,0-10.31-2.86h-61.1q-10,0-16.64,8.49a19.78,19.78,0,0,0-2.52,4.6A20.43,20.43,0,0,0,719.23,121.3Z"/><path class="cls-2" d="M881.64,68.86h82.57q23.4,0,39.17,10.14a37.22,37.22,0,0,1,5.89,4.42q12.91,12.22,12.92,30.6,0,15.42-9.36,26.43a29.89,29.89,0,0,1-4.08,3.9,38.23,38.23,0,0,1-6.76,4.77q-15.68,9.09-37.78,9.1l-60.73.34h-1.82v19.68q0,5.53-4.94,9.36a12,12,0,0,1-6.76,2h-19.5V80q0-4.76,4.25-8.66A11,11,0,0,1,881.64,68.86Zm20,31.29v27.3h64.8q10.14,0,14.56-4.25c.52-.52,1.07-1.09,1.65-1.73a12.75,12.75,0,0,0,2.43-7.63q0-8.84-8.67-12.3a29.46,29.46,0,0,0-9.8-1.39Z"/><path class="cls-4" d="M78.7,255.35A78.78,78.78,0,0,1,0,176.65V78.7A78.78,78.78,0,0,1,78.7,0H515.14V255.35Z"/><path class="cls-4" d="M509.47,5.67v244H78.7a73,73,0,0,1-73-73V78.7a73,73,0,0,1,73-73Z"/><path class="cls-3" d="M319.92,185.51a44.2,44.2,0,0,1-3.69-4.87q-6.86-11.59-13.49-23.32a9.31,9.31,0,0,0-4.58-4.12c-2.68-1.18-5.31-2.46-8-3.72a3.27,3.27,0,0,1-1.9-4.37c1.19-3.62,2.09-7.13.64-11-.81-2.16-.24-2.46,2.07-2.25,3,.27,6,.56,9,.71,2.82.14,5-1.33,6.68-3.38,1.33-1.58,1.57-5.44.35-6.72a3.22,3.22,0,0,1-.69-3.7c.58-1.74,1.48-3.56-.39-5.26,1.82-1.1,1.71-2.24.34-3.46a3.45,3.45,0,0,1-.65-1c-1.12-2.11-.95-2.41,1.13-3.65a49.64,49.64,0,0,0,4.16-3.11c-2.78-3.21-5.23-6.29-8-9.09A7.14,7.14,0,0,1,300.82,86c1.36,0,2.71,0,4.05,0A27,27,0,0,0,310,86,4.33,4.33,0,0,0,312.41,84c.8-1.27-.62-1.54-1.35-2-3.82-2.36-7.65-4.71-11.5-7a2.72,2.72,0,0,1-1.48-2.6c-.06-1.25-.55-3.27-1.33-3.54-2.08-.71-2.27-2.14-2.36-3.78a50.35,50.35,0,0,1-.16-6.72,11.85,11.85,0,0,1,1.4-3.73,45.3,45.3,0,0,0,2.57-5.24c.88-2.78,1.38-5.68,2-8.53.55-2.38.63-4.65-.82-6.85-1.54-2.35-1.54-2.49-4.12-1.2Q257,52,218.65,71.27c-2.55,1.28-5.06,2.66-7.51,4.12-1.74,1-2.74,4.3-2.07,6.19.77,2.17,2.66,1.89,4.3,1.77,3.53-.25,7.06-.55,10.55-1.09,1.62-.25,2.47.19,3,1.59.76,1.89,1.64,3.75,2.25,5.69a3.87,3.87,0,0,1-.12,2.73c-2.94,5.27-3.16,10.32.73,15.23.16.21.28.46.44.68,6.33,9.08,11.05,19.07,16.05,28.89a3.2,3.2,0,0,1,0,2.59,20.28,20.28,0,0,0-2.64,11.17c.16,2.69.3,5.28-2.07,7.26a4.29,4.29,0,0,0-.9,1.81c-3,7.9-6.07,15.75-8.75,23.74-.66,2-1.22,4-1.7,6H323.2C322.1,188.23,321,186.88,319.92,185.51Z"/><path class="cls-3" d="M73.52,68.86H183.59a13.76,13.76,0,0,1,8.5,3,14.34,14.34,0,0,1,5.11,11.35v16.9H197q-12.14.18-51.31.17-30.85.18-47.84.18-17.77.16-24.18.17a3.54,3.54,0,0,0-2.34.87,3.37,3.37,0,0,0-.87,2.51v6.59a3.17,3.17,0,0,0,2,3.2l.44.13a1.69,1.69,0,0,0,.43,0q39.35-.18,44.89-.18c.93,0,2.6,0,5-.08q10.23-.18,38.83-.18h.69a69,69,0,0,1,10,1,40.8,40.8,0,0,1,7.45,1.9q9.36,3.65,13.44,11.53,3.54,6.93,3.55,17.07v12.4q0,18.38-10.83,25.91-8.76,6.24-26.09,6.24H53.07a13.69,13.69,0,0,1-10.57-5.11,13.46,13.46,0,0,1-3.21-8.93V158.39H161.41a2.7,2.7,0,0,0,2.77-2,1.53,1.53,0,0,0,.22-.52c0-.18,0-.29,0-.35v-9.1a2.7,2.7,0,0,0-2-2.6,3.19,3.19,0,0,0-1-.17H73.7q-20.81,0-28.6-10.32a14.81,14.81,0,0,1-2.26-3.55,26,26,0,0,1-1.64-4.07A40.32,40.32,0,0,1,40,120.17a79.45,79.45,0,0,1-.52-10.49V109q0-16.72,2.86-23a22.64,22.64,0,0,1,4.94-8,15.2,15.2,0,0,1,3.38-3A30.71,30.71,0,0,1,62,70.16,49.21,49.21,0,0,1,73.52,68.86Z"/><path class="cls-3" d="M346.33,68.86h19.5q.94,0,15.6,12.57t33,28.64q18.33,16.08,32.55,28.65l14.21,12.56V68.86h19.5a11.44,11.44,0,0,1,11.7,11.53v97.5a11.93,11.93,0,0,1-4.94,9.71,13,13,0,0,1-3.21,1.47,12.62,12.62,0,0,1-4.42.52H461.51q-1,0-15.78-12.57t-33.1-28.64Q394.26,132.3,380,119.74l-14.21-12.48v82.33h-19a12.63,12.63,0,0,1-6.94-1.73,11.93,11.93,0,0,1-4.59-5.9,10.88,10.88,0,0,1-.69-3.9V80.65a11.2,11.2,0,0,1,4.76-9.45A10.84,10.84,0,0,1,346.33,68.86Z"/></g></g></svg>