<svg xmlns="http://www.w3.org/2000/svg" viewBox="0 0 705.83 972.69"><defs><style>.cls-1{fill:#1d1d1b;}</style></defs><g id="Capa_2" data-name="Capa 2"><g id="Capa_1-2" data-name="Capa 1"><path class="cls-1" d="M685.55,947.5c-7.83-9.82-16.38-19.3-22.73-30q-42.32-71.58-83.27-144c-6.84-12.14-16-20-28.32-25.41-16.5-7.31-32.73-15.24-49-23-11.73-5.56-15.67-14.93-11.72-27,7.31-22.34,12.91-44,3.91-68-5-13.35-1.44-15.16,12.8-13.89,18.4,1.65,36.81,3.47,55.26,4.38,17.38.85,30.59-8.21,41.23-20.83,8.23-9.76,9.67-33.6,2.18-41.5-6.85-7.22-7.28-14-4.31-22.85,3.62-10.73,9.14-22-2.39-32.46,11.23-6.83,10.55-13.85,2.08-21.39-1.8-1.6-2.78-4.17-4-6.39-6.95-13.06-5.89-14.87,7-22.52,8.45-5,15.86-11.8,25.62-19.22-17.13-19.78-32.24-38.8-49.1-56.13-11.9-12.24-17.3-25.18-13.08-44.24,8.41,0,16.7-.06,25,0,10.5.09,21.26,1.71,31.4-.12,5.69-1,11.82-6.75,15.14-12,4.92-7.8-3.82-9.48-8.34-12.27-23.57-14.58-47.19-29.09-71-43.26-6.46-3.84-8.78-8.14-9.12-16-.34-7.69-3.36-20.17-8.19-21.82-12.84-4.41-14-13.24-14.59-23.39-.8-13.82-2.05-27.76-.94-41.48.63-7.87,5.16-15.58,8.63-23,5.08-10.88,12.29-21,15.85-32.31C556.93,90.2,560,72.29,564.05,54.7,567.43,40,567.92,26,559,12.41,549.45-2.1,549.45-2.95,533.53,5Q296.92,123.53,60.45,242.28q-23.62,11.86-46.37,25.45C3.35,274.12-2.84,294.27,1.29,305.91c4.75,13.4,16.43,11.67,26.57,11,21.77-1.54,43.58-3.42,65.13-6.75,10-1.54,15.21,1.22,18.68,9.84,4.69,11.68,10.14,23.12,13.91,35.09,1.61,5.14,1.73,12.43-.77,16.9-18.15,32.49-19.48,63.71,4.5,94,1,1.31,1.76,2.87,2.72,4.24,39.11,56.05,68.23,117.68,99.11,178.3,2.22,4.34,2.38,11.84.09,16-11.92,21.61-17.72,44.47-16.28,69,1,16.58,1.85,32.58-12.77,44.78-2.93,2.45-4.13,7.25-5.59,11.16-18.15,48.81-37.43,97.24-54,146.58-4.08,12.18-7.54,24.42-10.52,36.72H705.83C699.05,964.3,692.27,955.93,685.55,947.5Z"/></g></g></svg>